<svg width="66" height="65" viewBox="0 0 66 65" fill="none" xmlns="http://www.w3.org/2000/svg">
<g id="send 1" clip-path="url(#clip0_325_4800)">
<g id="Group">
<g id="Group_2">
<path id="Vector" d="M49.7482 18.8714L8.01833 21.9753C6.26028 22.106 4.75217 23.2005 4.08247 24.8311C3.41285 26.462 3.71663 28.3004 4.8754 29.6289L14.0269 40.1213L29.0626 32.5296C29.7545 32.1803 30.5987 32.4579 30.9481 33.1499C31.2974 33.8418 31.0197 34.686 30.3278 35.0354L15.292 42.627L18.3016 56.2204C18.6827 57.9416 19.9816 59.2776 21.6915 59.7069C23.4047 60.137 25.1793 59.5699 26.3264 58.2353L53.5996 26.4992C54.8414 25.0543 55.0792 23.1002 54.2205 21.3995C53.3618 19.6988 51.6481 18.7299 49.7482 18.8714Z" fill="#41BE90"/>
</g>
</g>
</g>
<defs>
<clipPath id="clip0_325_4800">
<rect width="47.9037" height="47.9037" fill="white" transform="translate(0.663086 21.6093) rotate(-26.7895)"/>
</clipPath>
</defs>
</svg>
