<svg width="84" height="84" viewBox="0 0 84 84" fill="none" xmlns="http://www.w3.org/2000/svg">
<g id="analysis" clip-path="url(#clip0_563_2186)">
<path id="Vector" fill-rule="evenodd" clip-rule="evenodd" d="M11.8416 6.1C11.0976 6.1 10.4888 6.70786 10.4888 7.45204C10.4888 8.19672 11.0966 8.80556 11.8416 8.80556C12.5863 8.80556 13.1937 8.19623 13.1937 7.45204C13.1937 6.70835 12.5853 6.1 11.8416 6.1ZM19.5527 6.1C18.809 6.1 18.2007 6.70835 18.2007 7.45204C18.2007 8.19623 18.808 8.80556 19.5527 8.80556C20.2979 8.80556 20.9064 8.19722 20.9064 7.45204C20.9064 6.70736 20.2971 6.1 19.5527 6.1ZM27.2655 6.1C26.5211 6.1 25.9118 6.70736 25.9118 7.45204C25.9118 8.19722 26.5201 8.80556 27.2655 8.80556C28.0101 8.80556 28.6175 8.19623 28.6175 7.45204C28.6175 6.70835 28.0092 6.1 27.2655 6.1ZM39.4784 46.0263C33.3566 46.0263 28.376 51.0067 28.376 57.1287C28.376 63.2492 33.3582 68.2288 39.4784 68.2288C45.5988 68.2288 50.5786 63.249 50.5786 57.1287C50.5786 51.007 45.6006 46.0263 39.4784 46.0263ZM12.7687 31.0715C12.7687 25.8185 16.678 21.3562 21.8778 20.6599L22.6212 20.5603V31.0715C22.6212 31.1891 22.6512 31.3038 22.7109 31.4052L28.039 40.4672L27.3488 40.7585C26.06 41.302 24.6753 41.5814 23.2766 41.5802C17.4814 41.5802 12.7687 36.8668 12.7687 31.0715ZM3.14844 12.9344V4.75108C3.14844 3.21792 4.39597 1.97055 5.92913 1.97055H78.0705C79.604 1.97055 80.8519 3.21759 80.8519 4.75108V12.9344H3.14844ZM53.3676 57.1287C53.3676 64.7881 47.1379 71.0179 39.4784 71.0179C31.8189 71.0179 25.5884 64.7884 25.5884 57.1287C25.5884 49.4688 31.818 43.2372 39.4784 43.2372C47.1384 43.2372 53.3676 49.4693 53.3676 57.1287ZM53.1463 41.1748V50.4764L53.2105 50.6107C53.7222 51.6828 54.1053 52.8116 54.3517 53.9738L54.4621 54.4937H55.673V41.1748H53.1463ZM61.4054 37.0537H63.9321V54.4935H61.4054V37.0537ZM69.6645 32.9342H72.1912V54.4935H69.6645V32.9342ZM65.9936 78.3905L57.0645 69.7098L53.25 73.6221L61.8997 82.0312H62.4592L65.9936 78.3905Z" fill="#90C7F0"/>
<path id="Vector_2" fill-rule="evenodd" clip-rule="evenodd" d="M39.4784 66.2599C34.4434 66.2599 30.3449 62.163 30.3449 57.1287C30.3449 52.0913 34.4435 47.995 39.4784 47.995C44.5134 47.995 48.6105 52.0913 48.6105 57.1287C48.6105 62.163 44.5135 66.2599 39.4784 66.2599ZM39.4784 45.37C32.9947 45.37 27.7198 50.6441 27.7198 57.1287C27.7198 63.6102 32.9947 68.8851 39.4784 68.8851C45.9622 68.8851 51.2347 63.6102 51.2347 57.1287C51.2348 50.6441 45.9622 45.37 39.4784 45.37ZM58.7509 27.1292C58.7509 27.8544 58.1635 28.4417 57.4384 28.4417H44.6218C44.4483 28.4437 44.2761 28.4112 44.1152 28.3461C43.9543 28.281 43.8079 28.1847 43.6845 28.0626C43.5611 27.9406 43.4631 27.7953 43.3962 27.6352C43.3294 27.475 43.2949 27.3032 43.2949 27.1296C43.2949 26.9561 43.3294 26.7843 43.3962 26.6241C43.4631 26.4639 43.5611 26.3186 43.6845 26.1966C43.8079 26.0746 43.9543 25.9782 44.1152 25.9132C44.2761 25.8481 44.4483 25.8156 44.6218 25.8175H57.4384C58.1635 25.8174 58.7509 26.4055 58.7509 27.1292ZM43.3093 21.5826C43.3093 20.8574 43.8966 20.2701 44.6218 20.2701H70.2549C70.9801 20.2701 71.5674 20.8574 71.5674 21.5826C71.5674 22.3077 70.9801 22.8951 70.2549 22.8951H44.6218C43.8966 22.8953 43.3093 22.3077 43.3093 21.5826ZM71.5349 53.8373H70.3207V33.5905H71.5349V53.8373ZM72.8468 30.9655H69.0082C68.2831 30.9655 67.6957 31.5522 67.6957 32.278V55.1499C67.6957 55.8751 68.2831 56.4624 69.0082 56.4624H72.8468C73.5719 56.4624 74.1593 55.8751 74.1593 55.1499V32.278C74.1593 31.552 73.5719 30.9655 72.8468 30.9655ZM63.2759 53.8373H62.0616V37.7099H63.2759V53.8373ZM64.5884 35.0849H60.749C60.0238 35.0849 59.4365 35.6738 59.4365 36.3974V55.1498C59.4365 55.8749 60.0238 56.4623 60.749 56.4623H64.5884C64.7607 56.4622 64.9313 56.4283 65.0905 56.3623C65.2496 56.2963 65.3942 56.1996 65.5161 56.0777C65.6379 55.9558 65.7345 55.8112 65.8003 55.6519C65.8662 55.4927 65.9001 55.3221 65.9 55.1498V36.3974C65.9002 35.6738 65.3129 35.0849 64.5884 35.0849ZM17.6939 55.0384C17.6938 55.3863 17.5556 55.7199 17.3096 55.9659C17.0636 56.212 16.73 56.3502 16.382 56.3502H12.1125C11.3873 56.3502 10.8 55.7627 10.8 55.0384C10.8 54.3132 11.3873 53.7259 12.1125 53.7259H16.382C16.5544 53.7259 16.725 53.7599 16.8842 53.8258C17.0434 53.8918 17.188 53.9885 17.3098 54.1104C17.4317 54.2323 17.5283 54.377 17.5942 54.5362C17.6601 54.6954 17.694 54.8661 17.6939 55.0384ZM17.6939 49.3037C17.6939 50.0289 17.1064 50.6162 16.382 50.6162H12.1125C11.3873 50.6162 10.8 50.0289 10.8 49.3037C10.8 48.5786 11.3873 47.9921 12.1125 47.9921H16.382C16.5543 47.992 16.7249 48.0259 16.8841 48.0918C17.0433 48.1577 17.1879 48.2543 17.3097 48.3761C17.4316 48.4979 17.5282 48.6425 17.5941 48.8017C17.66 48.9609 17.6939 49.1315 17.6939 49.3037ZM29.3527 38.819L25.5707 32.3856L33.0388 32.3894C32.689 34.9898 31.3231 37.2704 29.3527 38.819ZM13.425 31.0715C13.425 36.5057 17.8448 40.9239 23.2768 40.9239C24.6288 40.9239 25.9188 40.6499 27.0937 40.154L22.1454 31.7377C22.027 31.5357 21.9647 31.3057 21.9651 31.0715V21.3103C17.1513 21.9549 13.425 26.0859 13.425 31.0715ZM33.0388 29.7644L24.5893 29.7613V21.3103C28.975 21.8976 32.4546 25.3787 33.0388 29.7644ZM23.2768 18.5953C16.396 18.5953 10.8 24.193 10.8 31.0713C10.8 37.9521 16.396 43.5489 23.2768 43.5489C30.1559 43.5489 35.7544 37.9521 35.7544 31.0713C35.7544 24.193 30.1561 18.5953 23.2768 18.5953ZM25.2557 7.45205C25.2557 6.34611 26.158 5.44377 27.2656 5.44377C28.3716 5.44377 29.2739 6.34611 29.2739 7.45205C29.2739 8.55948 28.3716 9.46182 27.2656 9.46182C26.158 9.46182 25.2557 8.55948 25.2557 7.45205ZM17.5446 7.45205C17.5446 6.34611 18.4469 5.44377 19.5529 5.44377C20.6603 5.44377 21.5628 6.34611 21.5628 7.45205C21.5628 8.55948 20.6605 9.46182 19.5529 9.46182C18.4469 9.46182 17.5446 8.55948 17.5446 7.45205ZM9.83267 7.45205C9.83267 6.34611 10.735 5.44377 11.8418 5.44377C12.9477 5.44377 13.8501 6.34611 13.8501 7.45205C13.8501 8.55948 12.9477 9.46182 11.8418 9.46182C10.735 9.46182 9.83267 8.55948 9.83267 7.45205ZM78.0705 62.9183C79.2423 62.9183 80.1956 61.9649 80.1956 60.7932V14.9039H3.80469V60.7932C3.80469 61.9649 4.75822 62.9183 5.92913 62.9183H24.714C24.0073 61.1236 23.6205 59.1711 23.6205 57.1287C23.6205 56.8672 23.6267 56.6078 23.6382 56.3502H21.404C21.2299 56.353 21.0571 56.3211 20.8955 56.2564C20.7338 56.1917 20.5867 56.0954 20.4627 55.9733C20.3386 55.8512 20.2401 55.7056 20.1728 55.5451C20.1055 55.3845 20.0709 55.2121 20.0709 55.0381C20.0709 54.864 20.1055 54.6916 20.1728 54.5311C20.2401 54.3705 20.3386 54.2249 20.4627 54.1028C20.5867 53.9807 20.7338 53.8844 20.8955 53.8197C21.0571 53.755 21.2299 53.7231 21.404 53.7259H23.9873C24.2225 52.6566 24.5677 51.6146 25.0175 50.6164H21.4042C21.2317 50.6165 21.061 50.5827 20.9016 50.5168C20.7423 50.4509 20.5975 50.3542 20.4755 50.2323C20.3535 50.1104 20.2568 49.9657 20.1908 49.8064C20.1248 49.6471 20.0908 49.4763 20.0908 49.3039C20.0908 48.5788 20.6782 47.9922 21.4042 47.9922H26.5228C29.3971 43.9284 34.1333 41.2686 39.4786 41.2686C44.105 41.2686 48.2771 43.2621 51.1777 46.4336V40.5185C51.1777 39.7934 51.7651 39.206 52.4902 39.206H56.3295C57.0546 39.206 57.642 39.7934 57.642 40.5185V55.1499C57.642 55.8751 57.0546 56.4624 56.3295 56.4624H55.3218C55.3317 56.6844 55.3367 56.9065 55.3366 57.1287C55.3366 59.171 54.9495 61.1236 54.2423 62.9183H78.0705ZM57.0769 70.6371L65.0659 78.404L62.1816 81.375H62.1661L54.1788 73.6098L57.0769 70.6371ZM53.3731 70.6704L50.823 68.1962C51.0667 67.9468 51.3021 67.6895 51.5288 67.4246L54.1012 69.9197L53.3731 70.6704ZM55.0168 53.8373H54.9937C54.7366 52.6245 54.3368 51.4464 53.8026 50.3277V41.831H55.0168V53.8373ZM26.2447 57.1287C26.2447 64.4259 32.1804 70.3617 39.4784 70.3617C46.7754 70.3617 52.7114 64.4259 52.7114 57.1287C52.7114 49.8309 46.7756 43.8934 39.4784 43.8934C32.1806 43.8934 26.2447 49.8309 26.2447 57.1287ZM5.92913 2.62665C4.75822 2.62665 3.80469 3.58018 3.80469 4.75093V12.278H80.1956V4.75109C80.1956 3.58018 79.2423 2.62681 78.0705 2.62681L5.92913 2.62665ZM78.0705 0.00164795H5.92913C3.30938 0.00164795 1.17969 2.13298 1.17969 4.75109V60.7932C1.17969 63.4136 3.30955 65.5435 5.92913 65.5435H26.0429C28.8506 70.0104 33.8229 72.9868 39.4786 72.9868C42.9751 72.9868 46.2099 71.8476 48.8351 69.9238L51.7124 72.716C51.6041 73.0131 51.5484 73.3312 51.5538 73.6562C51.5572 74.0023 51.6294 74.3443 51.7663 74.6623C51.9032 74.9802 52.1019 75.2677 52.3509 75.5081L60.3391 83.2602C60.8307 83.7368 61.4887 84.0028 62.1734 84.0016C62.8621 84.0016 63.5502 83.7339 64.0648 83.203L66.9492 80.232C67.9615 79.1879 67.9351 77.5179 66.8934 76.5056L58.9052 68.7535C58.4014 68.2651 57.7374 68.0075 57.03 68.0121C56.71 68.017 56.3937 68.0805 56.0967 68.1995L53.3601 65.5435H78.0707C80.6911 65.5435 82.8201 63.4136 82.8201 60.7932V4.75109C82.82 2.13298 80.6909 0.00164795 78.0705 0.00164795Z" fill="#014D85"/>
</g>
<defs>
<clipPath id="clip0_563_2186">
<rect width="84" height="84" fill="white"/>
</clipPath>
</defs>
</svg>
