<svg width="84" height="84" viewBox="0 0 84 84" fill="none" xmlns="http://www.w3.org/2000/svg">
<g id="Bank">
<path id="Vector" d="M23.625 44.3887V61.9237C24.3909 62.1945 25.0543 62.6956 25.5243 63.3582C25.9942 64.0209 26.2477 64.8126 26.25 65.625V68.25C26.25 68.5981 26.1117 68.9319 25.8656 69.1781C25.6194 69.4242 25.2856 69.5625 24.9375 69.5625H11.8125C11.4644 69.5625 11.1306 69.4242 10.8844 69.1781C10.6383 68.9319 10.5 68.5981 10.5 68.25V65.625C10.5023 64.8126 10.7558 64.0209 11.2257 63.3582C11.6957 62.6956 12.3591 62.1945 13.125 61.9237V44.3887C12.3591 44.118 11.6957 43.6169 11.2257 42.9543C10.7558 42.2916 10.5023 41.4999 10.5 40.6875V38.0625C10.5 37.7144 10.6383 37.3806 10.8844 37.1344C11.1306 36.8883 11.4644 36.75 11.8125 36.75H24.9375C25.2856 36.75 25.6194 36.8883 25.8656 37.1344C26.1117 37.3806 26.25 37.7144 26.25 38.0625V40.6875C26.2477 41.4999 25.9942 42.2916 25.5243 42.9543C25.0543 43.6169 24.3909 44.118 23.625 44.3887Z" fill="#96A1C3"/>
<path id="Vector_2" d="M23.6249 44.3887V61.9237C24.3908 62.1945 25.0542 62.6956 25.5242 63.3582C25.9942 64.0209 26.2477 64.8126 26.2499 65.625V68.25C26.2499 68.5981 26.1117 68.9319 25.8655 69.1781C25.6194 69.4242 25.2855 69.5625 24.9374 69.5625H15.7499C15.7435 69.5278 15.7435 69.4922 15.7499 69.4575V66.6225C15.7517 65.7807 16.0016 64.9582 16.4685 64.2578C16.9355 63.5574 17.5986 63.0103 18.3749 62.685V43.6931C17.5882 43.3635 16.918 42.8063 16.4502 42.093C15.9825 41.3797 15.7386 40.5429 15.7499 39.69V36.855C15.7435 36.8203 15.7435 36.7847 15.7499 36.75H24.9374C25.2855 36.75 25.6194 36.8883 25.8655 37.1344C26.1117 37.3806 26.2499 37.7144 26.2499 38.0625V40.6875C26.2477 41.4999 25.9942 42.2916 25.5242 42.9543C25.0542 43.6169 24.3908 44.118 23.6249 44.3887Z" fill="#CCD3EB"/>
<path id="Vector_3" d="M47.25 44.3887V61.9237C48.0159 62.1945 48.6793 62.6956 49.1493 63.3582C49.6192 64.0209 49.8727 64.8126 49.875 65.625V68.25C49.875 68.5981 49.7367 68.9319 49.4906 69.1781C49.2444 69.4242 48.9106 69.5625 48.5625 69.5625H35.4375C35.0894 69.5625 34.7556 69.4242 34.5094 69.1781C34.2633 68.9319 34.125 68.5981 34.125 68.25V65.625C34.1273 64.8126 34.3808 64.0209 34.8507 63.3582C35.3207 62.6956 35.9841 62.1945 36.75 61.9237V44.3887C35.9841 44.118 35.3207 43.6169 34.8507 42.9543C34.3808 42.2916 34.1273 41.4999 34.125 40.6875V38.0625C34.125 37.7144 34.2633 37.3806 34.5094 37.1344C34.7556 36.8883 35.0894 36.75 35.4375 36.75H48.5625C48.9106 36.75 49.2444 36.8883 49.4906 37.1344C49.7367 37.3806 49.875 37.7144 49.875 38.0625V40.6875C49.8727 41.4999 49.6192 42.2916 49.1493 42.9543C48.6793 43.6169 48.0159 44.118 47.25 44.3887Z" fill="#96A1C3"/>
<path id="Vector_4" d="M47.2499 44.3887V61.9237C48.0158 62.1945 48.6793 62.6956 49.1492 63.3582C49.6192 64.0209 49.8727 64.8126 49.8749 65.625V68.25C49.8749 68.5981 49.7367 68.9319 49.4905 69.1781C49.2444 69.4242 48.9105 69.5625 48.5624 69.5625H39.3749C39.3685 69.5278 39.3685 69.4922 39.3749 69.4575V66.6225C39.3767 65.7807 39.6266 64.9582 40.0935 64.2578C40.5605 63.5574 41.2236 63.0103 41.9999 62.685V43.6931C41.2132 43.3635 40.543 42.8063 40.0752 42.093C39.6075 41.3797 39.3636 40.5429 39.3749 39.69V36.855C39.3685 36.8203 39.3685 36.7847 39.3749 36.75H48.5624C48.9105 36.75 49.2444 36.8883 49.4905 37.1344C49.7367 37.3806 49.8749 37.7144 49.8749 38.0625V40.6875C49.8727 41.4999 49.6192 42.2916 49.1492 42.9543C48.6793 43.6169 48.0158 44.118 47.2499 44.3887Z" fill="#CCD3EB"/>
<path id="Vector_5" d="M70.875 44.3887V61.9237C71.6409 62.1945 72.3043 62.6956 72.7743 63.3582C73.2442 64.0209 73.4977 64.8126 73.5 65.625V68.25C73.5 68.5981 73.3617 68.9319 73.1156 69.1781C72.8694 69.4242 72.5356 69.5625 72.1875 69.5625H59.0625C58.7144 69.5625 58.3806 69.4242 58.1344 69.1781C57.8883 68.9319 57.75 68.5981 57.75 68.25V65.625C57.7523 64.8126 58.0058 64.0209 58.4757 63.3582C58.9457 62.6956 59.6091 62.1945 60.375 61.9237V44.3887C59.6091 44.118 58.9457 43.6169 58.4757 42.9543C58.0058 42.2916 57.7523 41.4999 57.75 40.6875V38.0625C57.75 37.7144 57.8883 37.3806 58.1344 37.1344C58.3806 36.8883 58.7144 36.75 59.0625 36.75H72.1875C72.5356 36.75 72.8694 36.8883 73.1156 37.1344C73.3617 37.3806 73.5 37.7144 73.5 38.0625V40.6875C73.4977 41.4999 73.2442 42.2916 72.7743 42.9543C72.3043 43.6169 71.6409 44.118 70.875 44.3887Z" fill="#96A1C3"/>
<path id="Vector_6" d="M70.8751 44.3887V61.9238C71.641 62.1945 72.3044 62.6956 72.7744 63.3582C73.2443 64.0209 73.4978 64.8126 73.5001 65.625V68.25C73.5001 68.5981 73.3618 68.9319 73.1157 69.1781C72.8695 69.4242 72.5357 69.5625 72.1876 69.5625H63.0001C62.9937 69.5278 62.9937 69.4922 63.0001 69.4575V66.6225C63.0018 65.7807 63.2518 64.9582 63.7187 64.2578C64.1856 63.5574 64.8488 63.0103 65.6251 62.685V43.6931C64.8384 43.3635 64.1681 42.8063 63.7004 42.093C63.2327 41.3797 62.9888 40.5429 63.0001 39.69V36.855C62.9937 36.8203 62.9937 36.7847 63.0001 36.75H72.1876C72.5357 36.75 72.8695 36.8883 73.1157 37.1344C73.3618 37.3806 73.5001 37.7144 73.5001 38.0625V40.6875C73.4978 41.4999 73.2443 42.2916 72.7744 42.9543C72.3044 43.6169 71.641 44.118 70.8751 44.3887ZM74.8126 28.875C74.8126 29.2231 74.6743 29.5569 74.4282 29.8031C74.182 30.0492 73.8482 30.1875 73.5001 30.1875H10.5001C10.2304 30.1874 9.96721 30.1042 9.74645 29.9492C9.52569 29.7942 9.35805 29.5749 9.26634 29.3212C9.17558 29.0661 9.16596 28.7891 9.2388 28.5283C9.31165 28.2675 9.46339 28.0356 9.67322 27.8644L10.0276 27.5625L22.562 17.3119L36.5138 5.89312C37.0883 5.42036 37.7241 5.02743 38.4038 4.72499C38.8496 4.51217 39.3157 4.34507 39.7951 4.22624C41.2399 3.84097 42.7603 3.84097 44.2051 4.22624C44.5329 4.30348 44.8535 4.40888 45.1632 4.54124L45.5963 4.72499C46.1231 4.96233 46.6245 5.25257 47.0926 5.59125L47.4863 5.89312L59.2989 15.5662L63.3413 18.8737L64.3126 19.6875L68.3682 23.0081L72.3057 26.2237L73.9201 27.5362L74.2745 27.8381C74.4381 27.9577 74.5719 28.1135 74.6653 28.2934C74.7586 28.4733 74.8091 28.6724 74.8126 28.875Z" fill="#CCD3EB"/>
<path id="Vector_7" d="M72.3582 26.25H22.3126C22.0429 26.2499 21.7797 26.1667 21.5589 26.0117C21.3382 25.8567 21.1706 25.6374 21.0788 25.3838C20.9881 25.1286 20.9785 24.8516 21.0513 24.5908C21.1241 24.33 21.2759 24.0981 21.4857 23.9269L21.8401 23.625L34.3745 13.3744L45.1632 4.54126L45.5963 4.72501C46.1231 4.96235 46.6245 5.25259 47.0926 5.59126L47.4863 5.89313L59.2989 15.5663L63.3414 18.8738L64.3126 19.6875L68.3682 23.0081L72.3582 26.25Z" fill="#F5F7FF"/>
<path id="Vector_8" d="M74.8125 27.5625H9.1875C7.01288 27.5625 5.25 29.3254 5.25 31.5V35.4375C5.25 37.6121 7.01288 39.375 9.1875 39.375H74.8125C76.9871 39.375 78.75 37.6121 78.75 35.4375V31.5C78.75 29.3254 76.9871 27.5625 74.8125 27.5625Z" fill="#CCD3EB"/>
<path id="Vector_9" d="M42.4991 15.75H41.1866C41.0125 15.75 40.8456 15.6809 40.7225 15.5578C40.5995 15.4347 40.5303 15.2678 40.5303 15.0938C40.5303 14.9197 40.5995 14.7528 40.7225 14.6297C40.8456 14.5066 41.0125 14.4375 41.1866 14.4375H44.6253C44.9734 14.4375 45.3073 14.2992 45.5534 14.0531C45.7995 13.8069 45.9378 13.4731 45.9378 13.125C45.9378 12.7769 45.7995 12.4431 45.5534 12.1969C45.3073 11.9508 44.9734 11.8125 44.6253 11.8125H43.3128V10.5C43.3128 10.1519 43.1745 9.81806 42.9284 9.57192C42.6823 9.32578 42.3484 9.1875 42.0003 9.1875C41.6522 9.1875 41.3184 9.32578 41.0722 9.57192C40.8261 9.81806 40.6878 10.1519 40.6878 10.5V11.8125C39.8176 11.8786 39.0093 12.2878 38.4407 12.9499C37.8721 13.612 37.5898 14.4729 37.656 15.3431C37.7221 16.2134 38.1312 17.0217 38.7933 17.5903C39.4555 18.1589 40.3163 18.4411 41.1866 18.375H42.4991C42.6731 18.375 42.84 18.4441 42.9631 18.5672C43.0862 18.6903 43.1553 18.8572 43.1553 19.0312C43.1553 19.2053 43.0862 19.3722 42.9631 19.4953C42.84 19.6184 42.6731 19.6875 42.4991 19.6875H39.3753C39.0272 19.6875 38.6934 19.8258 38.4473 20.0719C38.2011 20.3181 38.0628 20.6519 38.0628 21C38.0628 21.3481 38.2011 21.6819 38.4473 21.9281C38.6934 22.1742 39.0272 22.3125 39.3753 22.3125H40.6878V23.625C40.6878 23.9731 40.8261 24.3069 41.0722 24.5531C41.3184 24.7992 41.6522 24.9375 42.0003 24.9375C42.3484 24.9375 42.6823 24.7992 42.9284 24.5531C43.1745 24.3069 43.3128 23.9731 43.3128 23.625V22.1944C44.094 22.0055 44.7782 21.5353 45.2346 20.8738C45.6911 20.2123 45.8877 19.4058 45.7871 18.6084C45.6864 17.811 45.2954 17.0787 44.6888 16.5514C44.0823 16.0241 43.3027 15.7388 42.4991 15.75Z" fill="#F5F7FF"/>
<path id="Vector_10" d="M73.5 66.9375H10.5C8.75952 66.9375 7.09032 67.6289 5.85961 68.8596C4.6289 70.0903 3.9375 71.7595 3.9375 73.5V78.75C3.9375 79.0981 4.07578 79.4319 4.32192 79.6781C4.56806 79.9242 4.9019 80.0625 5.25 80.0625H78.75C79.0981 80.0625 79.4319 79.9242 79.6781 79.6781C79.9242 79.4319 80.0625 79.0981 80.0625 78.75V73.5C80.0625 71.7595 79.3711 70.0903 78.1404 68.8596C76.9097 67.6289 75.2405 66.9375 73.5 66.9375Z" fill="#96A1C3"/>
<path id="Vector_11" d="M64.549 21.5513C64.4268 21.7018 64.2729 21.8235 64.0981 21.9074C63.9234 21.9914 63.7322 22.0356 63.5383 22.0369C63.235 22.0414 62.9406 21.9339 62.7115 21.735L61.6877 20.895C61.4582 20.6648 61.3222 20.3575 61.3063 20.0327C61.2903 19.708 61.3955 19.3889 61.6014 19.1372C61.8073 18.8856 62.0992 18.7193 62.4207 18.6706C62.7422 18.6219 63.0703 18.6943 63.3415 18.8738L64.3127 19.6875C64.4524 19.793 64.5695 19.9255 64.6572 20.0769C64.745 20.2284 64.8015 20.3959 64.8235 20.5696C64.8455 20.7433 64.8326 20.9196 64.7854 21.0882C64.7383 21.2568 64.6579 21.4142 64.549 21.5513Z" fill="#033C59"/>
<path id="Vector_12" d="M41.1866 14.4375H44.6253C44.9734 14.4375 45.3073 14.2992 45.5534 14.0531C45.7995 13.8069 45.9378 13.4731 45.9378 13.125C45.9378 12.7769 45.7995 12.4431 45.5534 12.1969C45.3073 11.9508 44.9734 11.8125 44.6253 11.8125H43.3128V10.5C43.3128 10.1519 43.1745 9.81806 42.9284 9.57192C42.6823 9.32578 42.3484 9.1875 42.0003 9.1875C41.6522 9.1875 41.3184 9.32578 41.0722 9.57192C40.8261 9.81806 40.6878 10.1519 40.6878 10.5V11.8125C39.8176 11.8786 39.0093 12.2878 38.4407 12.9499C37.8721 13.612 37.5898 14.4729 37.656 15.3431C37.7221 16.2134 38.1312 17.0217 38.7933 17.5903C39.4555 18.1589 40.3163 18.4411 41.1866 18.375H42.4991C42.6731 18.375 42.84 18.4441 42.9631 18.5672C43.0862 18.6903 43.1553 18.8572 43.1553 19.0312C43.1553 19.2053 43.0862 19.3722 42.9631 19.4953C42.84 19.6184 42.6731 19.6875 42.4991 19.6875H39.3753C39.0272 19.6875 38.6934 19.8258 38.4473 20.0719C38.2011 20.3181 38.0628 20.6519 38.0628 21C38.0628 21.3481 38.2011 21.6819 38.4473 21.9281C38.6934 22.1742 39.0272 22.3125 39.3753 22.3125H40.6878V23.625C40.6878 23.9731 40.8261 24.3069 41.0722 24.5531C41.3184 24.7992 41.6522 24.9375 42.0003 24.9375C42.3484 24.9375 42.6823 24.7992 42.9284 24.5531C43.1745 24.3069 43.3128 23.9731 43.3128 23.625V22.1944C44.094 22.0055 44.7782 21.5353 45.2346 20.8738C45.6911 20.2123 45.8877 19.4058 45.7871 18.6084C45.6864 17.811 45.2954 17.0787 44.6888 16.5514C44.0823 16.0241 43.3027 15.7388 42.4991 15.75H41.1866C41.0125 15.75 40.8456 15.6809 40.7225 15.5578C40.5995 15.4347 40.5303 15.2678 40.5303 15.0938C40.5303 14.9197 40.5995 14.7528 40.7225 14.6297C40.8456 14.5066 41.0125 14.4375 41.1866 14.4375Z" fill="#99C83C"/>
<path id="Vector_13" d="M73.5 66.9375V65.625C73.4977 64.8127 73.2442 64.0209 72.7743 63.3582C72.3043 62.6956 71.6409 62.1945 70.875 61.9238V44.3888C71.6409 44.118 72.3043 43.6169 72.7743 42.9543C73.2442 42.2916 73.4977 41.4999 73.5 40.6875V39.375H74.8125C75.8568 39.375 76.8583 38.9602 77.5967 38.2217C78.3352 37.4833 78.75 36.4818 78.75 35.4375V31.5C78.75 30.4557 78.3352 29.4542 77.5967 28.7158C76.8583 27.9774 75.8568 27.5625 74.8125 27.5625H73.9725L68.4206 23.0344C68.291 22.9044 68.1356 22.8031 67.9644 22.7369C67.7932 22.6707 67.6101 22.6411 67.4268 22.6502C67.2434 22.6592 67.064 22.7065 66.9002 22.7892C66.7363 22.8718 66.5916 22.9879 66.4753 23.1299C66.3591 23.272 66.274 23.4368 66.2254 23.6138C66.1769 23.7908 66.166 23.9761 66.1934 24.1575C66.2209 24.339 66.2861 24.5127 66.3849 24.6674C66.4837 24.8221 66.6138 24.9544 66.7669 25.0556L69.825 27.5625H14.175L38.1675 7.87501C39.1208 7.13206 40.2689 6.68096 41.473 6.57615C42.6771 6.47135 43.8858 6.71732 44.9531 7.28438C45.262 7.45674 45.5561 7.65429 45.8325 7.87501L57.645 17.535C57.9162 17.7144 58.2443 17.7868 58.5657 17.7382C58.8872 17.6895 59.1792 17.5232 59.3851 17.2716C59.591 17.0199 59.6962 16.7008 59.6802 16.376C59.6642 16.0513 59.5283 15.744 59.2988 15.5138L47.4863 5.85376C47.3562 5.74583 47.2204 5.64505 47.0794 5.55188C46.6211 5.20169 46.1234 4.90654 45.5963 4.67251C44.1239 3.99799 42.4915 3.75108 40.8855 3.95995C39.2795 4.16882 37.7646 4.82507 36.5137 5.85376L22.5619 17.3119L10.0275 27.5625H9.1875C8.14321 27.5625 7.14169 27.9774 6.40327 28.7158C5.66484 29.4542 5.25 30.4557 5.25 31.5V35.4375C5.25 36.4818 5.66484 37.4833 6.40327 38.2217C7.14169 38.9602 8.14321 39.375 9.1875 39.375H10.5V40.6875C10.5023 41.4999 10.7558 42.2916 11.2257 42.9543C11.6957 43.6169 12.3591 44.118 13.125 44.3888V61.9238C12.3591 62.1945 11.6957 62.6956 11.2257 63.3582C10.7558 64.0209 10.5023 64.8127 10.5 65.625V66.9375C8.75952 66.9375 7.09032 67.6289 5.85961 68.8596C4.6289 70.0903 3.9375 71.7595 3.9375 73.5V78.75C3.9375 79.0981 4.07578 79.432 4.32192 79.6781C4.56806 79.9242 4.9019 80.0625 5.25 80.0625H78.75C79.0981 80.0625 79.4319 79.9242 79.6781 79.6781C79.9242 79.432 80.0625 79.0981 80.0625 78.75V73.5C80.0625 71.7595 79.3711 70.0903 78.1404 68.8596C76.9097 67.6289 75.2405 66.9375 73.5 66.9375ZM70.875 40.6875C70.875 41.0356 70.7367 41.3694 70.4906 41.6156C70.2444 41.8617 69.9106 42 69.5625 42H61.6875C61.3394 42 61.0056 41.8617 60.7594 41.6156C60.5133 41.3694 60.375 41.0356 60.375 40.6875V39.375H70.875V40.6875ZM47.25 61.9238V44.3888C48.0159 44.118 48.6793 43.6169 49.1493 42.9543C49.6192 42.2916 49.8727 41.4999 49.875 40.6875V39.375H57.75V40.6875C57.7523 41.4999 58.0058 42.2916 58.4757 42.9543C58.9457 43.6169 59.6091 44.118 60.375 44.3888V61.9238C59.6091 62.1945 58.9457 62.6956 58.4757 63.3582C58.0058 64.0209 57.7523 64.8127 57.75 65.625V66.9375H49.875V65.625C49.8727 64.8127 49.6192 64.0209 49.1493 63.3582C48.6793 62.6956 48.0159 62.1945 47.25 61.9238ZM23.625 61.9238V44.3888C24.3909 44.118 25.0543 43.6169 25.5243 42.9543C25.9942 42.2916 26.2477 41.4999 26.25 40.6875V39.375H34.125V40.6875C34.1273 41.4999 34.3808 42.2916 34.8507 42.9543C35.3207 43.6169 35.9841 44.118 36.75 44.3888V61.9238C35.9841 62.1945 35.3207 62.6956 34.8507 63.3582C34.3808 64.0209 34.1273 64.8127 34.125 65.625V66.9375H26.25V65.625C26.2477 64.8127 25.9942 64.0209 25.5243 63.3582C25.0543 62.6956 24.3909 62.1945 23.625 61.9238ZM14.4375 42C14.0894 42 13.7556 41.8617 13.5094 41.6156C13.2633 41.3694 13.125 41.0356 13.125 40.6875V39.375H23.625V40.6875C23.625 41.0356 23.4867 41.3694 23.2406 41.6156C22.9944 41.8617 22.6606 42 22.3125 42H14.4375ZM21 44.625V61.6875H15.75V44.625H21ZM36.75 65.625C36.75 65.2769 36.8883 64.9431 37.1344 64.6969C37.3806 64.4508 37.7144 64.3125 38.0625 64.3125H45.9375C46.2856 64.3125 46.6194 64.4508 46.8656 64.6969C47.1117 64.9431 47.25 65.2769 47.25 65.625V66.9375H36.75V65.625ZM39.375 61.6875V44.625H44.625V61.6875H39.375ZM45.9375 42H38.0625C37.7144 42 37.3806 41.8617 37.1344 41.6156C36.8883 41.3694 36.75 41.0356 36.75 40.6875V39.375H47.25V40.6875C47.25 41.0356 47.1117 41.3694 46.8656 41.6156C46.6194 41.8617 46.2856 42 45.9375 42ZM60.375 65.625C60.375 65.2769 60.5133 64.9431 60.7594 64.6969C61.0056 64.4508 61.3394 64.3125 61.6875 64.3125H69.5625C69.9106 64.3125 70.2444 64.4508 70.4906 64.6969C70.7367 64.9431 70.875 65.2769 70.875 65.625V66.9375H60.375V65.625ZM63 61.6875V44.625H68.25V61.6875H63ZM9.1875 36.75C8.8394 36.75 8.50556 36.6117 8.25942 36.3656C8.01328 36.1194 7.875 35.7856 7.875 35.4375V31.5C7.875 31.1519 8.01328 30.8181 8.25942 30.5719C8.50556 30.3258 8.8394 30.1875 9.1875 30.1875H74.8125C75.1606 30.1875 75.4944 30.3258 75.7406 30.5719C75.9867 30.8181 76.125 31.1519 76.125 31.5V35.4375C76.125 35.7856 75.9867 36.1194 75.7406 36.3656C75.4944 36.6117 75.1606 36.75 74.8125 36.75H9.1875ZM13.125 65.625C13.125 65.2769 13.2633 64.9431 13.5094 64.6969C13.7556 64.4508 14.0894 64.3125 14.4375 64.3125H22.3125C22.6606 64.3125 22.9944 64.4508 23.2406 64.6969C23.4867 64.9431 23.625 65.2769 23.625 65.625V66.9375H13.125V65.625ZM77.4375 77.4375H6.5625V73.5C6.5625 72.4557 6.97734 71.4542 7.71577 70.7158C8.45419 69.9774 9.45571 69.5625 10.5 69.5625H73.5C74.5443 69.5625 75.5458 69.9774 76.2842 70.7158C77.0227 71.4542 77.4375 72.4557 77.4375 73.5V77.4375Z" fill="#014D85"/>
</g>
</svg>
