<svg width="84" height="84" viewBox="0 0 84 84" fill="none" xmlns="http://www.w3.org/2000/svg">
<g id="Ship" clip-path="url(#clip0_563_2143)">
<path id="Vector" d="M46.4212 13.2632H37.5791V2.21054H46.4212V13.2632Z" fill="#292F33"/>
<path id="Vector_2" d="M46.4212 15.4737H37.5791V6.63159H46.4212V15.4737Z" fill="#D1D3D4"/>
<path id="Vector_3" d="M46.4211 15.4737H42V6.63159H46.4211V15.4737Z" fill="#A7A9AC"/>
<g id="Clip path group">
<mask id="mask0_563_2143" style="mask-type:luminance" maskUnits="userSpaceOnUse" x="0" y="0" width="84" height="84">
<g id="a">
<path id="Vector_4" d="M0 0H84V84H0V0Z" fill="white"/>
</g>
</mask>
<g mask="url(#mask0_563_2143)">
<g id="Group">
<path id="Vector_5" d="M42.0005 44.2105H13.2637C13.2637 44.2105 16.2589 61.8947 24.04 75.1579C31.8188 88.421 42.0005 75.1579 42.0005 75.1579C42.0005 75.1579 52.1822 88.421 59.961 75.1579C67.7421 61.8947 70.7374 44.2105 70.7374 44.2105H42.0005Z" fill="#66757F"/>
<path id="Vector_6" d="M42.0005 44.2105H13.2637C13.2637 44.2105 16.2589 61.8947 24.04 75.1579C31.8188 88.421 42.0005 75.1579 42.0005 75.1579V44.2105Z" fill="#99AAB5"/>
<path id="Vector_7" d="M81.7899 68.5263H2.21094V81.7895H81.7899V68.5263Z" fill="#014D85"/>
<path id="Vector_8" d="M68.5263 22.1052H63.1105L62.5755 13.2631H21.4244L20.8916 22.1052H15.4736V35.3684H20.0892L19.5543 44.2105H64.4456L63.9107 35.3684H68.5263V22.1052Z" fill="#E6E7E8"/>
<path id="Vector_9" d="M24.3164 35.3684H59.6848V44.2105H24.3164V35.3684Z" fill="#D1D3D4"/>
<path id="Vector_10" d="M19.8955 26.5263H64.106V30.9474H19.8955V26.5263Z" fill="#6D6E71"/>
<path id="Vector_11" d="M24.3164 17.6842H59.6848V22.1053H24.3164V17.6842Z" fill="#BCBEC0"/>
<path id="Vector_12" d="M15.282 53.0526H68.7193C69.1636 51.4013 69.5328 49.8982 69.8245 48.6316H14.1768C14.4685 49.8982 14.8399 51.4013 15.282 53.0526Z" fill="#99C83C"/>
<path id="Vector_13" d="M42 53.0526H68.7186C69.1629 51.4013 69.5321 49.8982 69.8239 48.6316H42V53.0526Z" fill="#99C83C"/>
<path id="Vector_14" d="M55.2636 44.2105H28.7373V39.7895H55.2636V44.2105Z" fill="#BCBEC0"/>
<path id="Vector_15" d="M42.0002 6.63156H37.5791V2.21051H42.0002V6.63156Z" fill="#58595B"/>
</g>
</g>
</g>
</g>
<defs>
<clipPath id="clip0_563_2143">
<rect width="84" height="84" fill="white"/>
</clipPath>
</defs>
</svg>
